<svg xmlns="http://www.w3.org/2000/svg" width="128" height="128" fill-rule="evenodd" clip-rule="evenodd" image-rendering="optimizeQuality" shape-rendering="geometricPrecision" text-rendering="geometricPrecision" id="emoji-pro">
  <g>
    <path fill="#c0875d" d="M 100.5,81.5 C 86.7878,77.5247 72.7878,75.0247 58.5,74C 53.2596,71.5445 47.9263,69.3779 42.5,67.5C 38.5188,68.6341 34.8521,70.4675 31.5,73C 25.0748,73.9056 18.7415,75.0723 12.5,76.5C 11.9196,72.8581 11.4196,69.1914 11,65.5C 8.52724,64.8803 6.02724,64.2136 3.5,63.5C 6.02724,62.7864 8.52724,62.1197 11,61.5C 11.3042,56.8975 12.1376,52.3975 13.5,48C 11.7895,45.6284 9.45621,43.9618 6.5,43C 9.51435,42.8724 12.5144,42.8724 15.5,43C 17.6774,38.9791 20.344,35.3124 23.5,32C 15.1222,21.9219 15.9556,21.0886 26,29.5C 29.5518,26.2809 33.3851,23.4476 37.5,21C 30.4758,8.01238 31.4758,7.34571 40.5,19C 44.7559,18.3608 49.0893,17.8608 53.5,17.5C 51.9246,-0.773872 53.258,-0.773872 57.5,17.5C 61.1064,17.2108 64.6064,17.5442 68,18.5C 69.8476,13.4475 71.8476,8.44748 74,3.5C 74.1461,8.84261 74.1461,14.1759 74,19.5C 76.8824,21.7021 80.0491,22.8688 83.5,23C 86.1227,19.588 88.6227,16.088 91,12.5C 91.8373,10.9926 93.0039,10.4926 94.5,11C 91.9003,16.201 89.567,21.5344 87.5,27C 89.3463,28.7804 91.013,30.7804 92.5,33C 98.5512,31.0496 104.051,27.8829 109,23.5C 108.956,25.2785 108.289,26.9452 107,28.5C 103.273,31.7241 100.106,35.3908 97.5,39.5C 98.5804,41.9962 99.9138,44.3295 101.5,46.5C 107.724,44.4878 114.058,43.3211 120.5,43C 114.5,46.3333 108.5,49.6667 102.5,53C 103.435,55.3806 103.768,57.8806 103.5,60.5C 131.301,62.0375 131.301,64.0375 103.5,66.5C 103.768,69.1194 103.435,71.6194 102.5,74C 108.5,77.3333 114.5,80.6667 120.5,84C 114.058,83.6789 107.724,82.5122 101.5,80.5C 100.893,80.6236 100.56,80.9569 100.5,81.5 Z" opacity=".938"></path>
  </g>
  <g>
    <path fill="#8d684d" d="M 38.5,27.5 C 41.9549,28.1284 43.1215,30.1284 42,33.5C 39.1528,37.3798 36.6528,37.3798 34.5,33.5C 34.8662,30.7441 36.1995,28.7441 38.5,27.5 Z"></path>
  </g>
  <g>
    <path fill="#f6f2ee" d="M 58.5,36.5 C 73.3454,35.8439 80.1787,42.8439 79,57.5C 74.5853,67.6241 67.0853,71.1241 56.5,68C 48.1593,62.4781 45.6593,54.9781 49,45.5C 51.4057,41.5915 54.5724,38.5915 58.5,36.5 Z"></path>
  </g>
  <g>
    <path fill="#f3f0ec" d="M 23.5,40.5 C 38.5657,40.6233 43.0657,47.6233 37,61.5C 28.0987,67.9411 21.0987,66.2744 16,56.5C 15.005,49.4916 17.505,44.1582 23.5,40.5 Z"></path>
  </g>
  <g>
    <path fill="#2e2a21" d="M 60.5,41.5 C 71.9943,41.8306 76.161,47.4973 73,58.5C 65.494,66.9181 58.8274,66.2514 53,56.5C 51.8077,49.5509 54.3077,44.5509 60.5,41.5 Z"></path>
  </g>
  <g>
    <path fill="#8c684d" d="M 90.5,42.5 C 95.2624,43.0925 96.5957,45.5925 94.5,50C 91.2854,50.502 89.6188,49.002 89.5,45.5C 89.685,44.4163 90.0183,43.4163 90.5,42.5 Z"></path>
  </g>
  <g>
    <path fill="#2e2a21" d="M 24.5,44.5 C 33.8174,44.3064 37.3174,48.6397 35,57.5C 30.2082,62.7562 25.5415,62.7562 21,57.5C 18.3252,52.011 19.4919,47.6776 24.5,44.5 Z"></path>
  </g>
  <g>
    <path fill="#8b674c" d="M 89.5,54.5 C 95.8585,54.6944 97.8585,57.8611 95.5,64C 90.7205,65.3935 88.3872,63.5602 88.5,58.5C 88.6233,57.0755 88.9566,55.7421 89.5,54.5 Z"></path>
  </g>
  <g>
    <path fill="#fde0b1" d="M 100.5,81.5 C 99.5592,83.0495 98.8925,84.7162 98.5,86.5C 93.2629,83.2052 87.5962,81.7052 81.5,82C 79.6751,83.4659 79.1751,85.2992 80,87.5C 82.3556,91.9968 84.8556,96.3302 87.5,100.5C 87.5,101.167 87.8333,101.5 88.5,101.5C 97.2134,120.477 95.5467,121.311 83.5,104C 80.0491,104.131 76.8824,105.298 74,107.5C 74.1461,112.824 74.1461,118.157 74,123.5C 71.8476,118.553 69.8476,113.553 68,108.5C 64.9243,109.288 61.7577,109.788 58.5,110C 56.8607,114.586 55.0273,119.086 53,123.5C 52.5386,118.816 52.7053,114.149 53.5,109.5C 49.5499,109.536 45.7165,108.869 42,107.5C 39.199,109.974 36.699,112.807 34.5,116C 33.8333,116.667 33.1667,116.667 32.5,116C 33.9748,112.579 35.6414,109.246 37.5,106C 33.3851,103.552 29.5518,100.719 26,97.5C 23.3333,99.5 20.6667,101.5 18,103.5C 18.4724,99.9822 20.3058,97.1489 23.5,95C 22.6266,93.955 21.6266,93.1217 20.5,92.5C 19.0266,89.5531 17.5266,86.5531 16,83.5C 15.0138,82.8288 13.8471,82.8288 12.5,83.5C 11.8333,83.5 11.5,83.8333 11.5,84.5C 9.80081,84.6602 8.13414,84.4935 6.5,84C 8.74632,82.9605 10.913,81.7938 13,80.5C 13.5791,79.0715 13.4124,77.7382 12.5,76.5C 18.7415,75.0723 25.0748,73.9056 31.5,73C 34.8521,70.4675 38.5188,68.6341 42.5,67.5C 47.9263,69.3779 53.2596,71.5445 58.5,74C 72.7878,75.0247 86.7878,77.5247 100.5,81.5 Z" opacity=".957"></path>
  </g>
  <g>
    <path fill="#393327" d="M 39.5,70.5 C 42.3965,70.1253 45.0632,70.6253 47.5,72C 43.7852,70.9284 40.4519,71.7618 37.5,74.5C 37.1667,74.1667 36.8333,73.8333 36.5,73.5C 37.7701,72.7124 38.7701,71.7124 39.5,70.5 Z"></path>
  </g>
  <g>
    <path fill="#c1885e" d="M 98.5,86.5 C 103.604,88.3689 105.937,92.0355 105.5,97.5C 104.596,98.209 104.263,99.209 104.5,100.5C 99.4651,106.646 94.1317,106.979 88.5,101.5C 87.8333,101.5 87.5,101.167 87.5,100.5C 84.8556,96.3302 82.3556,91.9968 80,87.5C 79.1751,85.2992 79.6751,83.4659 81.5,82C 87.5962,81.7052 93.2629,83.2052 98.5,86.5 Z" opacity=".951"></path>
  </g>
  <g>
    <path fill="#89674c" d="M 20.5,92.5 C 15.2928,99.4916 10.9595,98.9916 7.5,91C 7.72247,88.0379 9.05581,85.8712 11.5,84.5C 12.1667,84.5 12.5,84.1667 12.5,83.5C 13.8471,82.8288 15.0138,82.8288 16,83.5C 17.5266,86.5531 19.0266,89.5531 20.5,92.5 Z" opacity=".87"></path>
  </g>
  <g>
    <path fill="#fddfb0" d="M 105.5,97.5 C 111.207,103.089 110.873,104.089 104.5,100.5C 104.263,99.209 104.596,98.209 105.5,97.5 Z" opacity=".524"></path>
  </g>
</svg>
