<svg xmlns="http://www.w3.org/2000/svg" enable-background="new 0 0 48 48" viewBox="0 0 48 48" id="mummy">
  <path fill="#d6d6d6" d="M10.544,23.954C8.553,23.725,7,22.053,7,20c0-2.053,1.553-3.725,3.544-3.954L10.544,23.954z M37.456,23.954
	C39.448,23.725,41,22.053,41,20c0-2.053-1.553-3.725-3.544-3.954L37.456,23.954z"></path>
  <path fill="#5e5e5e" d="M39,20c0,8.284-6.716,15-15,15S9,28.284,9,20S15.715,5,24,5S39,11.716,39,20z M44.861,43
	C43.694,38.523,34.804,35,24,35c-10.804,0-19.694,3.523-20.861,8H44.861z"></path>
  <path fill="#919191" d="M32.416,7.584C30.016,5.954,27.12,5,24,5C15.715,5,9,11.716,9,20c0,3.12,0.954,6.016,2.584,8.416L32.416,7.584z
	"></path>
  <path fill="#474747" d="M18,16c0-0.552,0.448-1,1-1s1,0.448,1,1c0,0.552-0.448,1-1,1S18,16.552,18,16z M30,16c0-0.552-0.448-1-1-1
	s-1,0.448-1,1c0,0.552,0.448,1,1,1S30,16.552,30,16z"></path>
  <path fill="#828282" d="M9.132,22c0.292,2.185,1.049,4.218,2.177,6H36.69c1.127-1.782,1.885-3.815,2.177-6H9.132z"></path>
  <path fill="#b5b5b5" d="M34,22H9.132c0.292,2.185,1.049,4.218,2.177,6H28L34,22z"></path>
  <path fill="#a5a5a5" d="M35.182,30H12.819c2.746,3.062,6.743,5,11.18,5S32.435,33.062,35.182,30z"></path>
  <path fill="#d6d6d6" d="M26,30H12.819c2.168,2.417,5.104,4.133,8.432,4.749L26,30z"></path>
  <path fill="#828282" d="M35.157,10C32.411,6.938,28.437,5,24,5s-8.434,1.938-11.181,5H35.157z"></path>
  <path fill="#b5b5b5" d="M12.819,10H17l4.846-4.846C18.297,5.675,15.106,7.45,12.819,10z"></path>
  <path fill="#828282" d="M5.195,40h37.599C39.352,37.047,32.23,35,24,35C15.77,35,8.636,37.047,5.195,40z"></path>
  <path fill="#b5b5b5" d="M5.195,40H28l4.27-4.27C29.733,35.26,26.937,35,24,35C15.77,35,8.636,37.047,5.195,40z"></path>
  <path fill="#a5a5a5" d="M3.133,43H44.87c-0.382-1.465-1.592-2.829-3.427-4H6.556C4.721,40.171,3.51,41.521,3.133,43z"></path>
  <path fill="#d6d6d6" d="M18,39H6.556c-1.835,1.171-3.046,2.521-3.423,4H14L18,39z"></path>
  <path fill="#a5a5a5" d="M10.729,13h26.541c-0.797-1.507-1.832-2.852-3.072-4H13.801C12.561,10.148,11.525,11.493,10.729,13z"></path>
  <path fill="#d6d6d6" d="M32,9H13.801c-1.24,1.148-2.276,2.493-3.073,4H28L32,9z"></path>
  <path fill="#ccc" d="M9,20c0,1.028,0.103,2.031,0.3,3h29.4c0.197-0.969,0.3-1.973,0.3-3c0-0.338-0.011-0.668-0.033-1H9.032
	C9.01,19.332,9,19.662,9,20z"></path>
  <path fill="#efefef" d="M15,23l4-4H9.032C9.011,19.332,9,19.662,9,20c0,1.028,0.103,2.031,0.3,3H15z"></path>
  <path fill="#ccc" d="M10.73,27c0.797,1.506,1.832,2.852,3.072,4h20.396c1.24-1.148,2.275-2.494,3.072-4H10.73z"></path>
  <path fill="#efefef" d="M23,31l4-4H10.73c0.797,1.506,1.832,2.852,3.072,4H23z"></path>
  <path fill="#ccc" d="M9.293,17.033L32.3,7.504c-1.551-1.032-3.305-1.783-5.19-2.18L11.424,11.82
	C10.403,13.383,9.673,15.139,9.293,17.033z"></path>
  <path fill="#efefef" d="M24.663,6.337L11.424,11.82c-1.021,1.563-1.751,3.319-2.131,5.213l7.979-3.305L24.663,6.337z"></path>
  <path fill="#a5a5a5" d="M12.855,30.04L38.98,19.222c-0.071-1.398-0.333-2.743-0.762-4.014l-27.66,11.456
	C11.17,27.897,11.943,29.029,12.855,30.04z"></path>
  <path fill="#d6d6d6" d="M21.567,26.433l7.389-7.389l-18.398,7.62c0.612,1.232,1.385,2.365,2.298,3.376L21.567,26.433z"></path>
  <path fill="#ccc" d="M38.482,43l-18.837-7.805c-2.642,0.24-5.103,0.695-7.276,1.318L28.029,43H38.482z"></path>
  <path fill="#efefef" d="M28.243,38.757l-8.598-3.562c-2.642,0.24-5.103,0.695-7.276,1.318L25.18,41.82L28.243,38.757z"></path>
</svg>
